<?xml version="1.0" encoding="UTF-8"?>
<svg width="752pt" height="752pt" version="1.1" viewBox="0 0 752 752" xmlns="http://www.w3.org/2000/svg">
    <defs>
        <clipPath id="b">
            <path d="m175 159h423v430h-423z"/>
        </clipPath>
        <clipPath id="a">
            <path d="m52.539 289.33 410.13-236.79 236.79 410.13-410.13 236.79z"/>
        </clipPath>
    </defs>
    <g clip-path="url(#b)">
        <g clip-path="url(#a)">
            <path d="m225.41 216.89c-0.039062 0.03125-0.070312 0.070313-0.097656 0.10938-0.14062 0.14062-0.23438 0.3125-0.36719 0.45703-12.383 14.137-22.996 29.957-31.41 47.008-21.961 48.746-23.578 104.1-6.9648 152.91 16.609 48.816 51.535 91.285 102.63 113.72 41.348 18.238 88.25 19.367 129.53 5.0859 41.297-14.285 77.234-44.133 95.93-87.844 0.45313-1.0586 0.90625-2.1172 1.332-3.1836 13.863-34.438 13.992-73.129 1.6133-107.02-12.391-33.938-37.492-63.418-74.066-78.582-24.84-10.383-52.527-12.094-78.023-5.793 8.418-2.3711 17.121-3.8516 25.957-4.3906 31.605-1.9336 64.453 7.8281 90.359 28.469 0.79687 0.64062 1.5898 1.2891 2.375 1.9531 32.625 27.473 49.289 66.375 50.852 106.76 1.5664 40.402-12.027 81.98-39.672 114.09-34.312 39.711-82.391 59.742-131.89 61.238-49.492 1.4961-100.19-15.57-139.17-49.879-14.32-11.703-27.156-25.379-38.094-40.562-0.097656-0.16406-0.23438-0.3125-0.32812-0.47266-0.070312-0.11328-0.18359-0.19922-0.31641-0.22656-0.13281-0.03125-0.27344-0.007812-0.38672 0.066406-0.11328 0.074219-0.19141 0.19141-0.21484 0.32812-0.027344 0.13281 0.003906 0.26953 0.082031 0.37891 0.09375 0.16797 0.23438 0.32031 0.32812 0.48437 9.6172 16.145 21.375 31.145 34.992 44.414 39.578 35.949 91.711 54.578 143.27 53.863 51.559-0.71094 102.75-20.801 139.88-62.461 30.121-33.691 45.68-77.945 44.855-121.62-0.82422-43.691-18.105-87.102-53.898-118.39-0.85547-0.77344-1.7461-1.5195-2.625-2.2578-28.469-23.824-65.207-35.895-101.27-34.594-36.102 1.2969-71.91 16.059-97.629 46.156-17.598 20.473-27.789 46.367-29.633 72.637 0.33203-8.8125 1.6094-17.617 3.8477-26.262 7.9258-30.656 27.367-58.883 55.004-77.141 0.85547-0.56641 1.7188-1.1133 2.5898-1.6562 36.211-22.539 78.363-26.355 117.26-15.363 38.906 10.996 74.25 36.766 96.254 72.98 27.164 44.902 31.348 96.832 17.477 144.37-13.871 47.531-45.766 90.477-90.438 116.95-15.559 10-32.531 17.977-50.352 23.688-0.1875 0.03125-0.37891 0.11328-0.55859 0.16016-0.14062 0.027344-0.26172 0.10938-0.33984 0.23047-0.074219 0.12109-0.09375 0.26562-0.058594 0.40234 0.039063 0.13672 0.13281 0.25 0.26172 0.31641 0.125 0.0625 0.27344 0.070312 0.40625 0.019531 0.19141-0.035156 0.37891-0.11328 0.5625-0.15625 18.328-4.1523 36.219-10.715 53.047-19.559 46.418-26.535 80.258-70.363 95.512-119.62 15.254-49.254 11.961-104.15-16.188-152.34-22.73-39.059-60.016-67.539-101.81-80.25-41.805-12.719-88.43-9.6836-129.24 14.691-1 0.57812-1.9805 1.1953-2.9609 1.793-31.457 19.715-54.293 50.938-64.203 85.633-9.9219 34.734-6.9375 73.336 13.738 107.1 14 23.008 35.406 40.676 59.75 50.562-8.2109-3.0312-16.125-6.9375-23.598-11.699-26.703-17.012-47.535-44.234-56.363-76.164-0.26953-0.98828-0.53516-1.9688-0.78125-2.9648-10.246-41.402-0.86328-82.668 21.609-116.26 22.484-33.605 57.926-59.254 99.168-68.992 51.098-11.957 101.77 0.10156 142.7 27.984 40.918 27.883 71.906 71.492 83.277 122.16 4.7031 17.887 7.0547 36.496 6.9766 55.207-0.027344 0.1875-0.019532 0.39453-0.027344 0.58203-0.015625 0.13672 0.027344 0.27734 0.11719 0.38281 0.089844 0.10547 0.21875 0.16797 0.35938 0.17578 0.14062 0.003906 0.27344-0.046875 0.37109-0.14453 0.10156-0.097656 0.15625-0.23047 0.15234-0.37109 0.027344-0.19141 0.003906-0.39062 0.027344-0.58203 1.7109-18.715 1.0039-37.77-2.207-56.508-10.891-52.344-42.121-98.055-84.258-127.79-42.129-29.727-95.336-43.562-149.86-31.68-44.168 9.5508-82.789 36.211-107.79 72.027-25.012 35.832-36.543 81.094-25.973 127.45 0.25391 1.125 0.51953 2.2578 0.80078 3.3672 9.0273 36.012 31.652 67.383 61.59 87.527 29.969 20.172 67.605 29.262 106.11 20.027 26.133-6.1836 49.496-21.012 66.41-41.02-5.3906 6.8086-11.512 13.066-18.293 18.656-24.43 20.141-56.75 31.555-89.844 30.082-1.0195-0.046874-2.0469-0.10547-3.0703-0.17969-42.543-3.0508-78.879-24.73-103.88-56.484-25.016-31.77-38.461-73.402-34.977-115.63 4.418-52.293 31.539-96.762 70.707-127.07 39.16-30.305 90.211-46.285 141.91-41.445 18.465 1.0586 36.887 4.5742 54.66 10.43 0.17188 0.085938 0.375 0.12891 0.55078 0.19531 0.25 0.066406 0.50781-0.070313 0.59766-0.3125 0.089844-0.24219-0.019531-0.51172-0.25391-0.625-0.17188-0.089844-0.37109-0.12109-0.54688-0.20703-17.27-7.4102-35.598-12.633-54.41-15.367-53.148-5.8164-106.28 9.7578-147.57 40.645-41.293 30.879-70.895 77.219-76.441 132.75-4.5664 44.961 8.8555 89.914 35.195 124.76 26.348 34.863 65.832 59.824 113.18 64.094 1.1484 0.10938 2.3008 0.19922 3.4453 0.27734 37.039 2.543 73.863-9.2891 102.27-31.535 28.445-22.27 48.73-55.254 51.848-94.723 2.1953-26.793-4.707-53.621-18.543-75.902 4.832 7.2461 8.9023 15.027 12.133 23.23 11.605 29.461 12.469 63.715 0.84375 94.73-0.35938 0.96094-0.73438 1.918-1.1211 2.8711-16.047 39.516-47.895 67.387-85.824 81.355-37.941 13.973-81.688 13.883-120.77-2.4805-48.371-20.363-82.277-59.898-98.996-106.52-16.719-46.605-16.148-100.1 4.4336-147.77 6.707-17.234 15.746-33.672 26.805-48.766 0.13672-0.13672 0.24609-0.30078 0.36328-0.44531 0.17578-0.18359 0.18359-0.46484 0.027343-0.66016-0.16016-0.19531-0.44141-0.24219-0.65625-0.10937-0.019531 0.011718-0.042968 0.023437-0.0625 0.035156z"
                  fill-rule="evenodd"/>
        </g>
    </g>
</svg>
